<?xml version="1.0" encoding="UTF-8"?>
<svg id="Layer_1" xmlns="http://www.w3.org/2000/svg" version="1.1" viewBox="0 0 739.62 247.36">
  <!-- Generator: Adobe Illustrator 29.0.0, SVG Export Plug-In . SVG Version: 2.1.0 Build 186)  -->
  <defs>
    <style>
      .st0 {
        fill: #0743d8;
      }

      .st1 {
        fill: #fff;
      }
    </style>
  </defs>
  <g>
    <g>
      <path class="st0" d="M-1373.76,132.53c3.28,46.47,32.24,85.86,72.78,104.04l18.02-123.69,1.64-11.3-3.77,1.27-88.67,29.68Z"/>
      <path class="st0" d="M-1240.41,112.16c-.24-2.99-1.63-5.64-3.68-7.54-2.06-1.9-4.82-3.05-7.82-3.05-5.99,0-11,4.6-11.49,10.58l-1.81,21.69h26.6l-1.8-21.69Z"/>
      <path class="st0" d="M-1251.89,179.82c-4.34,0-8.33,1.59-11.41,4.27-3.07,2.67-5.2,6.42-5.81,10.71l-6.97,49.89c8.28,1.75,16.87,2.67,25.68,2.67,7.77,0,15.37-.72,22.74-2.09l-7-50.46c-1.2-8.6-8.55-14.99-17.23-14.99Z"/>
      <path class="st0" d="M-1250.4,0c-54.32,0-100.46,35.02-117.07,83.7h88.76l1.36-9.37c.3-2.09-1.32-3.97-3.43-3.97h0v-11.41l28.88-14.1,28.88,14.1v11.41c-2.11,0-3.73,1.88-3.43,3.97l1.36,9.37h91.78c-16.62-48.69-62.75-83.7-117.07-83.7Z"/>
      <path class="st0" d="M-1222.65,100.51l.14.97s19.84,136.33,19.84,136.33c42.02-17.59,72.27-57.72,75.62-105.27l-95.6-32.02Z"/>
    </g>
    <g>
      <polygon class="st0" points="-1008.87 151.55 -1049.77 69.41 -1070.73 69.41 -1070.73 193.12 -1048.91 193.12 -1048.91 119.24 -1013 193.12 -1004.75 193.12 -968.84 119.24 -968.84 193.12 -947.02 193.12 -947.02 69.41 -967.98 69.41 -1008.87 151.55"/>
      <rect class="st0" x="-924.68" y="66.84" width="23.36" height="20.62"/>
      <rect class="st0" x="-924.68" y="100.34" width="23.36" height="92.78"/>
      <path class="st0" d="M-794.36,122.46c-1.09-4.09-2.91-8.03-5.46-11.81-2.55-3.78-6.11-6.9-10.69-9.36-4.58-2.46-10.51-3.69-17.79-3.69-9.11,0-16.65,1.98-22.64,5.93-2.82,1.86-5.28,4.02-7.43,6.43v-9.61h-20.79v92.78h23.71v-47.08c0-5.79.64-10.43,1.93-13.92,1.29-3.49,2.93-6.14,4.94-7.94,2-1.8,4.15-3.02,6.44-3.65,2.29-.63,4.44-.95,6.44-.95,4.98,0,8.83,1.12,11.56,3.35,2.72,2.23,4.68,5.01,5.88,8.33,1.21,3.32,1.92,6.63,2.15,9.92.23,3.29.35,6,.35,8.12v43.81h23.71v-52.06c0-1.55-.12-4.01-.35-7.39-.23-3.38-.89-7.11-1.98-11.21Z"/>
      <path class="st0" d="M-709.09,69.43h-34.83l-37.82,123.68h24.06l7.86-25.79,6.61-21.78,16.51-54.25,16.67,54.25,6.76,21.78,7.94,25.79h24.06l-37.82-123.68Z"/>
      <rect class="st0" x="-657.51" y="69.41" width="23.37" height="123.71"/>
    </g>
  </g>
  <g>
    <g>
      <path class="st1" d="M0,132.53c3.28,46.47,32.24,85.86,72.78,104.04l18.02-123.69,1.64-11.3-3.77,1.27L0,132.53Z"/>
      <path class="st1" d="M133.35,112.16c-.24-2.99-1.63-5.64-3.68-7.54-2.06-1.9-4.82-3.05-7.82-3.05-5.99,0-11,4.6-11.49,10.58l-1.81,21.69h26.6l-1.8-21.69Z"/>
      <path class="st1" d="M121.87,179.82c-4.34,0-8.33,1.59-11.41,4.27-3.07,2.67-5.2,6.42-5.81,10.71l-6.97,49.89c8.28,1.75,16.87,2.67,25.68,2.67,7.77,0,15.37-.72,22.74-2.09l-7-50.46c-1.2-8.6-8.55-14.99-17.23-14.99Z"/>
      <path class="st1" d="M123.36,0C69.04,0,22.9,35.02,6.29,83.7h88.76l1.36-9.37c.3-2.09-1.32-3.97-3.43-3.97h0v-11.41l28.88-14.1,28.88,14.1v11.41c-2.11,0-3.73,1.88-3.43,3.97l1.36,9.37h91.78C223.82,35.02,177.68,0,123.36,0Z"/>
      <path class="st1" d="M151.12,100.51l.14.97s19.84,136.33,19.84,136.33c42.02-17.59,72.27-57.72,75.62-105.27l-95.6-32.02Z"/>
    </g>
    <g>
      <polygon class="st1" points="364.89 151.55 324 69.41 303.04 69.41 303.04 193.12 324.86 193.12 324.86 119.24 360.77 193.12 369.02 193.12 404.93 119.24 404.93 193.12 426.74 193.12 426.74 69.41 405.78 69.41 364.89 151.55"/>
      <rect class="st1" x="449.08" y="66.84" width="23.36" height="20.62"/>
      <rect class="st1" x="449.08" y="100.34" width="23.36" height="92.78"/>
      <path class="st1" d="M579.4,122.46c-1.09-4.09-2.91-8.03-5.46-11.81-2.55-3.78-6.11-6.9-10.69-9.36-4.58-2.46-10.51-3.69-17.79-3.69-9.11,0-16.65,1.98-22.64,5.93-2.82,1.86-5.28,4.02-7.43,6.43v-9.61h-20.79v92.78h23.71v-47.08c0-5.79.64-10.43,1.93-13.92,1.29-3.49,2.93-6.14,4.94-7.94,2-1.8,4.15-3.02,6.44-3.65,2.29-.63,4.44-.95,6.44-.95,4.98,0,8.83,1.12,11.56,3.35,2.72,2.23,4.68,5.01,5.88,8.33,1.21,3.32,1.92,6.63,2.15,9.92.23,3.29.35,6,.35,8.12v43.81h23.71v-52.06c0-1.55-.12-4.01-.35-7.39-.23-3.38-.89-7.11-1.98-11.21Z"/>
      <path class="st1" d="M664.67,69.43h-34.83l-37.82,123.68h24.06l7.86-25.79,6.61-21.78,16.51-54.25,16.67,54.25,6.76,21.78,7.94,25.79h24.06l-37.82-123.68Z"/>
      <rect class="st1" x="716.25" y="69.41" width="23.37" height="123.71"/>
    </g>
  </g>
</svg>
