<svg width="180" height="50" viewBox="0 0 180 50" fill="none" xmlns="http://www.w3.org/2000/svg">
  <!-- Circle with icon -->
  <circle cx="25" cy="25" r="25" fill="#0043CE"/>

  <!-- Building/Tower icon in center -->
  <g transform="translate(25, 25)">
    <!-- Top arch -->
    <path d="M -10 -15 Q 0 -20 10 -15" stroke="white" stroke-width="2" fill="none"/>
    <rect x="-5" y="-12" width="10" height="8" fill="white"/>

    <!-- Left wing -->
    <path d="M -12 -5 L -5 0 L -5 12 L -12 8 Z" fill="white"/>
    <rect x="-10" y="2" width="3" height="4" fill="#0043CE"/>
    <rect x="-10" y="8" width="3" height="2" fill="#0043CE"/>

    <!-- Center tower -->
    <rect x="-3" y="-2" width="6" height="14" fill="white"/>
    <rect x="-2" y="1" width="1.5" height="2" fill="#0043CE"/>
    <rect x="0.5" y="1" width="1.5" height="2" fill="#0043CE"/>
    <rect x="-2" y="5" width="1.5" height="2" fill="#0043CE"/>
    <rect x="0.5" y="5" width="1.5" height="2" fill="#0043CE"/>
    <rect x="-2" y="9" width="1.5" height="2" fill="#0043CE"/>
    <rect x="0.5" y="9" width="1.5" height="2" fill="#0043CE"/>

    <!-- Right wing -->
    <path d="M 12 -5 L 5 0 L 5 12 L 12 8 Z" fill="white"/>
    <rect x="7" y="2" width="3" height="4" fill="#0043CE"/>
    <rect x="7" y="8" width="3" height="2" fill="#0043CE"/>
  </g>

  <!-- MinAI Text -->
  <text x="60" y="35" font-family="Arial, sans-serif" font-size="32" font-weight="700" fill="#0043CE">MinAI</text>
</svg>
