<svg width="1200" height="630" viewBox="0 0 1200 630" fill="none" xmlns="http://www.w3.org/2000/svg">
  <!-- Background -->
  <rect width="1200" height="630" fill="#F8FAFC"/>

  <!-- Gradient circles -->
  <circle cx="200" cy="150" r="300" fill="#DBEAFE" opacity="0.3" filter="blur(60px)"/>
  <circle cx="1000" cy="480" r="300" fill="#E0E7FF" opacity="0.3" filter="blur(60px)"/>

  <!-- Logo (scaled and positioned) -->
  <g transform="translate(100, 180) scale(0.5)">
    <path d="M0,132.53c3.28,46.47,32.24,85.86,72.78,104.04l18.02-123.69,1.64-11.3-3.77,1.27L0,132.53Z" fill="#0743d8"/>
    <path d="M133.35,112.16c-.24-2.99-1.63-5.64-3.68-7.54-2.06-1.9-4.82-3.05-7.82-3.05-5.99,0-11,4.6-11.49,10.58l-1.81,21.69h26.6l-1.8-21.69h0Z" fill="#0743d8"/>
    <path d="M121.87,179.82c-4.34,0-8.33,1.59-11.41,4.27-3.07,2.67-5.2,6.42-5.81,10.71l-6.97,49.89c8.28,1.75,16.87,2.67,25.68,2.67,7.77,0,15.37-.72,22.74-2.09l-7-50.46c-1.2-8.6-8.55-14.99-17.23-14.99h0Z" fill="#0743d8"/>
    <path d="M123.36,0C69.04,0,22.9,35.02,6.29,83.7h88.76l1.36-9.37c.3-2.09-1.32-3.97-3.43-3.97h0v-11.41l28.88-14.1,28.88,14.1v11.41c-2.11,0-3.73,1.88-3.43,3.97l1.36,9.37h91.78C223.83,35.01,177.7,0,123.38,0h-.02Z" fill="#0743d8"/>
    <path d="M151.11,100.51l.14.97,19.84,136.33c42.02-17.59,72.27-57.72,75.62-105.27l-95.6-32.02h0Z" fill="#0743d8"/>

    <polygon points="364.89 151.55 323.99 69.41 303.03 69.41 303.03 193.12 324.85 193.12 324.85 119.24 360.76 193.12 369.01 193.12 404.92 119.24 404.92 193.12 426.74 193.12 426.74 69.41 405.78 69.41 364.89 151.55" fill="#0743d8"/>
    <rect x="449.08" y="66.84" width="23.36" height="20.62" fill="#0743d8"/>
    <rect x="449.08" y="100.34" width="23.36" height="92.78" fill="#0743d8"/>
    <path d="M579.4,122.46c-1.09-4.09-2.91-8.03-5.46-11.81-2.55-3.78-6.11-6.9-10.69-9.36s-10.51-3.69-17.79-3.69c-9.11,0-16.65,1.98-22.64,5.93-2.82,1.86-5.28,4.02-7.43,6.43v-9.61h-20.79v92.78h23.71v-47.08c0-5.79.64-10.43,1.93-13.92,1.29-3.49,2.93-6.14,4.94-7.94,2-1.8,4.15-3.02,6.44-3.65,2.29-.63,4.44-.95,6.44-.95,4.98,0,8.83,1.12,11.56,3.35,2.72,2.23,4.68,5.01,5.88,8.33,1.21,3.32,1.92,6.63,2.15,9.92.23,3.29.35,6,.35,8.12v43.81h23.71v-52.06c0-1.55-.12-4.01-.35-7.39s-.89-7.11-1.98-11.21h.02Z" fill="#0743d8"/>
    <path d="M664.67,69.43h-34.83l-37.82,123.68h24.06l7.86-25.79,6.61-21.78,16.51-54.25,16.67,54.25,6.76,21.78,7.94,25.79h24.06l-37.82-123.68h0Z" fill="#0743d8"/>
    <rect x="716.25" y="69.41" width="23.37" height="123.71" fill="#0743d8"/>
  </g>

  <!-- Headline -->
  <text x="500" y="280" font-family="'Space Grotesk', Arial, sans-serif" font-size="64" font-weight="700" fill="#0F172A">
    Infrastructure for Growth
  </text>

  <!-- Subheadline -->
  <text x="500" y="360" font-family="'Inter', Arial, sans-serif" font-size="32" font-weight="400" fill="#64748B">
    3x your revenue while saving 5+ hours per week
  </text>

  <!-- Badge -->
  <rect x="500" y="400" width="280" height="50" rx="25" fill="#0743d8"/>
  <text x="640" y="432" font-family="'Inter', Arial, sans-serif" font-size="20" font-weight="600" fill="white" text-anchor="middle">
    MinAI Autopilot System
  </text>
</svg>
